<?xml version="1.0" encoding="UTF-8"?>
<svg id="Layer_4" data-name="Layer 4" xmlns="http://www.w3.org/2000/svg" viewBox="0 0 1000 285.22">
  <defs>
    <style>
      .cls-1 {
        fill: #e8644b;
      }

      .cls-2 {
        fill: #9fe459;
      }
    </style>
  </defs>
  <g id="Layer_5" data-name="Layer 5">
    <path class="cls-2" d="M159.28,143.72c-2.61-2.65-4.98-5-7.13-7.11-1.99.2-3.9.45-5.79.71-4.04.54-7.86,1.04-12.05,1.04-6.15,0-11.75-1.13-17.62-3.55-5.92-2.44-11.42-5.94-16.37-10.4l-7.88-7.11,9.26-5.18c7.84-4.38,16.03-7.7,24.46-9.92-4.44-18.63,1.14-42.75,17.01-58.24,16.87-16.46,38.89-16.84,44.5-16.77C138.27,2.78,79.46,13.14,44.06,51.46,5.95,92.72,2.78,157.93,33.08,197.78c5.77,7.59,25.37,31.32,59.46,36.44,8.73,1.31,16.98,1.19,24.61.13-3.15-7.01-4.81-14.67-4.81-22.58,0-.69.02-1.38.04-2.07-4.96-.38-9.89-1.19-14.73-2.45-20.8-5.32-38.89-18.99-48.76-38.18-12.8-24.91-11.87-55.85-1.94-81.55,4.48-11.35,11.24-21.78,19.59-30.65,1-1.05,2.16-2.22,3.2-3.24.79-.76,1.67-1.55,2.37-2.22.94-.86,1.97-1.72,2.93-2.57,1.9-1.59,4.13-3.32,6.12-4.78.95-.7,2.27-1.56,3.18-2.21,1.06-.71,2.19-1.4,3.26-2.1,11.13-7.31,24.48-11.21,24.48-11.21,11.03-3.52,20.96-4.79,28.61-5.18h2.78c1.51-.2,2.85.68,3.16,1.88.29,1.09-.38,2.12-.99,2.71-.35.34-.81.54-1.3.6-32.52,3.45-63.52,20.21-80.57,48.66-16.35,27.43-18.84,68.94.41,95.5,11.4,15.81,29.46,25.47,48.61,28.08.21.03.41.06.62.08,2.11-10.55,7.27-20.26,15.05-28.04,10.4-10.4,24.22-16.13,38.93-16.13,1.36,0,2.71.05,4.05.15-1.47-1.95-2.81-3.4-3.7-4.35-3.07-3.27-5.88-6.18-8.45-8.8Z"/>
    <path class="cls-2" d="M206.18,200.66c-2.58-.14-4.91-.9-6.73-2.2-2.59-1.83-4.48-4.87-5.19-8.31-.65-3.13-.27-6.24,1.07-8.76l.29-.55.62-.1c3.26-.56,9.26-2.27,12.72-7.48l.02-.03.02-.03s1.23-1.69,1.97-4.65c.99-3.96.7-8.21-.86-12.64-1.73-4.88-7.35-10.84-14.67-15.56-6.25-4.03-16.61-9.07-30.41-10.23-1.88-.16-3.72-.24-5.61-.24-5.17,0-9.6.59-13.88,1.16-3.83.51-7.45.99-11.22.99h0c-5.29,0-10.12-.98-15.2-3.07-5.24-2.17-10.14-5.28-14.54-9.25l-1.31-1.18,1.54-.86c10.73-6,22.15-9.88,33.95-11.53,1.09-.15,6.96-.92,15.04-.92s20.89.84,32.95,4.86c13.67,4.56,23.96,12.17,30.57,22.62,1.24,1.96,4.36,7.32,6.46,14.65,2.88,10.04,2.84,19.83-.1,29.1-3.69,11.63-11.07,19.45-16.61,23.95l-.38.31-.49-.03Z"/>
    <path class="cls-1" d="M215.01,199.79c-2.52,1.66-4.96,1.95-6.13,2.08-1.58.17-6.25.42-10.17-2.37-5.72-4.06-8.06-13.27-4.03-19.56,2.83-4.41,7.67-5.67,9.13-5.99-9.44-9.1-22.28-14.69-36.43-14.69-29,0-52.51,23.51-52.51,52.51s23.51,52.51,52.51,52.51c32.55,0,51.89-30.46,52.51-52.51.15-5.57-.89-10.44-2.2-14.37-.56.67-1.44,1.57-2.69,2.39Z"/>
  </g>
  <g>
    <path class="cls-2" d="M318.81,179.2c0,19.05-.59,32.48-1.77,40.31-.74,4.57-3.84,6.87-9.3,6.87-8.27,0-11.96-4.14-11.07-12.4-7.38,3.54-15.06,5.32-23.03,5.32s-14.99-1.92-21.93-5.76c-8.27-4.57-12.4-10.41-12.4-17.5s4.72-13.43,14.17-19.49c8.56-5.46,16.61-8.2,24.14-8.2h18.83v-5.27c.15-15.38-4.43-23.08-13.73-23.08-11.66,0-17.5,5.41-17.5,16.22,0,3.65-2.07,5.48-6.2,5.48-2.51,0-5.13-1.14-7.86-3.43-2.73-2.29-4.1-4.69-4.1-7.2,0-8.27,2.95-15.06,8.86-20.38,5.9-5.32,12.99-7.97,21.26-7.97,27.76,0,41.64,18.83,41.64,56.48ZM296.44,187.18c0-2.95-2.21-4.43-6.64-4.43-18.46,0-27.68,4.36-27.68,13.07,0,4.73,4.06,7.09,12.18,7.09,5.02,0,9.74-1.4,14.17-4.21,5.32-3.1,7.97-6.94,7.97-11.52Z"/>
    <path class="cls-2" d="M389.36,140.66c0,1.03-.15,2.66-.44,4.87-3.1,4.43-6.35,6.64-9.75,6.64-2.81,0-5.32-1.62-7.53-4.87-.3-6.64-2.66-9.97-7.09-9.97-2.66,0-5.91,7.01-9.75,21.04-1.77,6.2-2.66,14.84-2.66,25.91,0,10.49.48,16.83,1.45,19.05,1.1,2.81,1.65,4.73,1.65,5.76,0,2.51-1.14,4.54-3.4,6.09s-4.79,2.32-7.56,2.32c-7.9,0-11.85-3.69-11.85-11.07,0-.74.18-1.77.55-3.1.37-1.33.55-2.29.55-2.88,0-7.53-.37-18.71-1.11-33.55-.74-14.84-1.11-25.95-1.11-33.33,0-6.64,3.99-9.97,11.96-9.97,4.72,0,7.97,1.41,9.74,4.21,4.13-4.58,8.78-6.87,13.95-6.87,3.54,0,6.94.96,10.19,2.88,2.21,1.18,4.8,3.73,7.75,7.64,2.95,3.91,4.43,6.98,4.43,9.19Z"/>
    <path class="cls-2" d="M472.72,82.19c0,3.25-.44,7.46-1.33,12.62-1.18,6.94-1.92,11.07-2.21,12.4-.44,4.58-1.15,18.09-2.1,40.53-.96,22.45-1.44,34.85-1.44,37.21,0,14.17,1.55,24.81,4.65,31.89-2.51,4.13-5.39,6.2-8.64,6.2s-6.42-1.29-9.08-3.88c-2.66-2.58-4.14-5.57-4.43-8.97-6.94,6.35-14.03,9.52-21.26,9.52-10.78,0-19.12-3.76-25.03-11.29-5.46-6.79-8.2-15.72-8.2-26.8,0-12.99,2.66-26.21,7.97-39.64,6.79-16.98,15.65-25.47,26.58-25.47,6.49,0,13.14,2.88,19.93,8.64.74-6.94,1.11-24.66,1.11-53.15,0-2.66,1.99-3.99,5.98-3.99,4.72,0,8.82,1.18,12.29,3.54,3.47,2.36,5.2,5.91,5.2,10.63ZM447.03,157.27c0-5.02-1.11-9.6-3.32-13.73-2.81-5.02-6.5-7.53-11.07-7.53-6.64,0-11.74,6.57-15.28,19.71-2.66,9.45-3.99,18.75-3.99,27.91,0,13.73,3.99,20.6,11.96,20.6s14.25-6.13,17.94-18.38c2.51-8.27,3.76-17.79,3.76-28.57Z"/>
    <path class="cls-2" d="M518.43,78.87c0,.74-.66,2.36-1.99,4.87-.59,1.18-1.18,4.51-1.77,9.97-3.1,33.08-4.65,62.09-4.65,87.04,0,6.5.59,11.74,1.77,15.72,1.03,3.4,3.17,8.05,6.42,13.95.15.3.22.74.22,1.33,0,3.1-3.62,4.65-10.85,4.65h-1.99c-7.53-.15-12.11-6.2-13.73-18.16-2.07-14.62-3.1-34.77-3.1-60.46,0-6.05.11-15.17.33-27.35.22-12.18.33-21.37.33-27.57,0-3.39,1.77-6.64,5.32-9.74,3.54-3.1,7.01-4.65,10.41-4.65,2.66,0,5.54,1.11,8.64,3.32,3.1,2.22,4.65,4.58,4.65,7.09Z"/>
    <path class="cls-2" d="M609.51,215.3c-2.22,3.39-4.95,5.09-8.2,5.09-2.51,0-6.64-1.48-12.4-4.43v-2.66c0-3.25.07-8.05.22-14.4.15-6.35.22-11,.22-13.95,0-31.59-4.7-47.4-14.1-47.4-2.64,0-5.65,2.07-9.03,6.2-10.42,12.7-15.64,27.98-15.64,45.85,0,2.51.48,6.24,1.44,11.19.96,4.95,1.44,8.68,1.44,11.18,0,2.07-.96,3.76-2.88,5.09-1.92,1.33-3.99,1.99-6.2,1.99-8.86,0-13.29-5.61-13.29-16.83v-46.29c0-1.18.15-2.91.44-5.2.29-2.29.44-4.02.44-5.2,0-1.77-.26-4.35-.78-7.75-.52-3.39-.78-5.9-.78-7.53,0-2.36,1.36-4.61,4.1-6.75,2.73-2.14,5.2-3.21,7.42-3.21,3.25,0,6.57,1.85,9.97,5.54l-.66,8.86c5.46-8.71,12.18-13.07,20.15-13.07,5.17,0,10.63,1.77,16.39,5.32,5.76,3.54,9.97,7.53,12.62,11.96,6.05,11.22,9.08,25.99,9.08,44.3v32.11Z"/>
    <path class="cls-2" d="M696.2,194.48c0,6.94-2.96,12.99-8.86,18.16-6.5,5.61-15.21,8.42-26.13,8.42-4.73.15-9.82-.81-15.28-2.88-17.72-6.64-26.58-12.03-26.58-16.17,0-6.5,4.65-9.75,13.95-9.75,1.33,0,2.73.08,4.21.22.44,4.43,3.99,7.97,10.63,10.63,5.76,2.36,11.3,3.32,16.61,2.88,4.28-.29,6.42-1.85,6.42-4.65,0-.44-.11-1.11-.33-1.99s-.33-1.59-.33-2.1-2.81-1.66-8.42-3.43c-6.35-1.92-9.89-3.02-10.63-3.32-16.83-10.04-25.25-22.15-25.25-36.32,0-8.56,2.44-16.46,7.31-23.7,5.46-7.97,12.25-11.96,20.38-11.96,6.05,0,12.96,2.36,20.71,7.09,7.75,4.73,12.51,9.82,14.29,15.28,1.18,3.84,1.77,7.02,1.77,9.52,0,2.66-.37,4.87-1.11,6.64l-2.66,6.64c-2.81,1.92-5.61,2.88-8.42,2.88-1.48,0-3.95-.92-7.42-2.77-3.47-1.85-5.2-3.43-5.2-4.76,0-.59.89-2.51,2.66-5.76,1.03-1.92,1.55-3.54,1.55-4.87,0-8.86-3.47-13.29-10.41-13.29-4.14,0-7.31,2.66-9.52,7.97-1.63,4.14-2.44,8.57-2.44,13.29,0,5.91,4.21,11.22,12.62,15.95,7.68,3.4,15.43,6.87,23.26,10.41,8.42,3.84,12.62,7.75,12.62,11.74Z"/>
    <path class="cls-2" d="M781.59,164.14c0,15.06-2.66,27.83-7.97,38.31-6.64,13.59-16.69,20.38-30.12,20.38-7.24,0-13.44-2.07-18.6-6.2v13.29c0,14.18,1.62,25.32,4.87,33.44,1.47,3.25,2.21,5.32,2.21,6.2,0,5.02-2.95,7.53-8.86,7.53-4.43,0-7.75-.81-9.97-2.44-1.63-1.03-3.25-4.73-4.87-11.07-1.33-5.61-1.99-9.89-1.99-12.85v-53.38c0-4.87.29-11.52.89-19.93.59-9.45.96-16.02,1.11-19.71.15-3.69.15-8.56,0-14.62v-14.84c0-12.55,4.09-18.83,12.27-18.83,2.04,0,3.94.7,5.7,2.1,1.75,1.41,2.63,3.07,2.63,4.98,0,3.25-.37,9.16-1.11,17.72,5.76-8.12,12.7-12.18,20.82-12.18,10.93,0,19.34,4.43,25.25,13.29,5.17,7.68,7.75,17.27,7.75,28.79ZM761.88,162.15c0-15.95-3.42-23.92-10.25-23.92-2.97,0-6.83,2.88-11.59,8.64-9.21,11.07-14.26,26.36-15.15,45.85,1.63.88,4.53,3.99,8.69,9.3,3.27,3.99,6.54,5.98,9.8,5.98,12.33,0,18.49-15.28,18.49-45.85Z"/>
    <path class="cls-2" d="M819.28,131.58c0,2.66-.59,6.42-1.77,11.3-1.18,4.87-1.77,8.64-1.77,11.29v45.62c0,2.81.89,7.24,2.66,13.29-2.24,3.4-4.7,5.09-7.38,5.09-9.39,0-14.54-4.65-15.43-13.95-1.48-17.27-2.21-30.27-2.21-38.98,0-14.62.59-26.87,1.77-36.76v-2.21c0-2.66,2.05-3.99,6.15-3.99,3.65,0,7.31.74,10.97,2.21,4.68,1.63,7.02,3.99,7.02,7.09ZM821.27,100.58c0,3.25-1.11,5.91-3.32,7.97-2.21,2.07-4.95,3.1-8.19,3.1-3.84,0-7.42-1.33-10.74-3.99-3.32-2.66-4.98-5.9-4.98-9.75,0-3.25,1.14-5.9,3.43-7.97,2.29-2.07,5.13-3.1,8.53-3.1,3.99,0,7.53,1.29,10.63,3.88,3.1,2.58,4.65,5.87,4.65,9.86Z"/>
    <path class="cls-2" d="M888.62,140.66c0,1.03-.15,2.66-.44,4.87-3.1,4.43-6.35,6.64-9.75,6.64-2.81,0-5.32-1.62-7.53-4.87-.3-6.64-2.66-9.97-7.09-9.97-2.66,0-5.91,7.01-9.74,21.04-1.77,6.2-2.66,14.84-2.66,25.91,0,10.49.48,16.83,1.45,19.05,1.1,2.81,1.65,4.73,1.65,5.76,0,2.51-1.13,4.54-3.4,6.09s-4.79,2.32-7.56,2.32c-7.9,0-11.85-3.69-11.85-11.07,0-.74.18-1.77.55-3.1.37-1.33.55-2.29.55-2.88,0-7.53-.37-18.71-1.11-33.55-.74-14.84-1.11-25.95-1.11-33.33,0-6.64,3.99-9.97,11.96-9.97,4.72,0,7.97,1.41,9.75,4.21,4.13-4.58,8.78-6.87,13.95-6.87,3.54,0,6.94.96,10.19,2.88,2.22,1.18,4.8,3.73,7.75,7.64,2.95,3.91,4.43,6.98,4.43,9.19Z"/>
    <path class="cls-2" d="M965.78,197.36c0,7.38-5.02,13.14-15.06,17.27-7.83,3.25-16.02,4.87-24.58,4.87-22.74,0-34.11-12.92-34.11-38.76,0-10.63,2.58-22.44,7.75-35.44,6.35-15.95,14.03-23.92,23.03-23.92,8.12,0,16.87,3.62,26.24,10.85,9.37,7.24,14.06,14.77,14.06,22.59,0,9.75-4.36,17.5-13.07,23.26-7.68,5.17-16.83,7.75-27.46,7.75-2.07,0-5.39-1.25-9.97-3.76.59,14.03,4.72,21.04,12.4,21.04,6.5,0,12.88-1.84,19.16-5.54,6.27-3.69,10.3-5.54,12.07-5.54,6.35,0,9.52,1.77,9.52,5.32ZM941.64,155.5c0-3.69-1.07-7.2-3.21-10.52-2.14-3.32-4.98-4.98-8.53-4.98-4.87,0-8.64,2.14-11.3,6.42-2.21,3.69-3.32,8.05-3.32,13.07,0,2.81.96,5.09,2.88,6.87,1.92,1.77,4.35,2.66,7.31,2.66,10.78,0,16.17-4.5,16.17-13.51Z"/>
  </g>
</svg>