<svg width="76" height="76" viewBox="0 0 76 76" fill="none" xmlns="http://www.w3.org/2000/svg">
<path fill-rule="evenodd" clip-rule="evenodd" d="M38 6.33333C20.5105 6.33333 6.33337 20.5105 6.33337 38C6.33337 55.4895 20.5105 69.6667 38 69.6667C55.4895 69.6667 69.6667 55.4895 69.6667 38C69.6667 20.5105 55.4895 6.33333 38 6.33333ZM26.9167 30.0833C26.9167 28.6278 27.2034 27.1866 27.7604 25.8419C28.3174 24.4972 29.1338 23.2754 30.1629 22.2462C31.1921 21.217 32.4139 20.4007 33.7586 19.8437C35.1033 19.2867 36.5446 19 38 19C39.4555 19 40.8968 19.2867 42.2414 19.8437C43.5861 20.4007 44.808 21.217 45.8371 22.2462C46.8663 23.2754 47.6827 24.4972 48.2397 25.8419C48.7967 27.1866 49.0834 28.6278 49.0834 30.0833C49.0834 33.0228 47.9157 35.8419 45.8371 37.9204C43.7586 39.999 40.9395 41.1667 38 41.1667C35.0606 41.1667 32.2415 39.999 30.1629 37.9204C28.0844 35.8419 26.9167 33.0228 26.9167 30.0833ZM57.817 53.7827C55.4458 56.7636 52.4321 59.1707 49.0008 60.8244C45.5695 62.4781 41.8091 63.3357 38 63.3333C34.191 63.3357 30.4306 62.4781 26.9993 60.8244C23.5679 59.1707 20.5543 56.7636 18.183 53.7827C23.3162 50.0998 30.3209 47.5 38 47.5C45.6792 47.5 52.6839 50.0998 57.817 53.7827Z" fill="#FFFAC7"/>
</svg>
